<svg width="32" height="32" viewBox="0 0 32 32" fill="none" xmlns="http://www.w3.org/2000/svg">
<path d="M15.0069 0.922596C15.1019 -0.308139 16.906 -0.30813 17.0009 0.922605L17.6739 9.6421C17.7369 10.4581 18.7 10.8571 19.3215 10.3246L25.963 4.6348C26.9004 3.8317 28.1761 5.1074 27.373 6.04482L21.6832 12.6863C21.1508 13.3078 21.5497 14.2709 22.3657 14.3339L31.0852 15.0069C32.316 15.1019 32.3159 16.906 31.0852 17.0009L22.3657 17.6739C21.5497 17.7369 21.1508 18.7 21.6832 19.3215L27.373 25.963C28.1761 26.9004 26.9004 28.1761 25.963 27.373L19.3215 21.6832C18.7 21.1508 17.7369 21.5497 17.6739 22.3657L17.0009 31.0852C16.906 32.316 15.1019 32.3159 15.0069 31.0852L14.3339 22.3657C14.2709 21.5497 13.3078 21.1508 12.6863 21.6832L6.04482 27.373C5.10739 28.1761 3.83171 26.9004 4.6348 25.963L10.3246 19.3215C10.8571 18.7 10.4581 17.7369 9.6421 17.6739L0.922596 17.0009C-0.308139 16.906 -0.30813 15.1019 0.922605 15.0069L9.6421 14.3339C10.4581 14.2709 10.8571 13.3078 10.3246 12.6863L4.6348 6.04482C3.8317 5.10739 5.1074 3.83171 6.04483 4.63481L12.6863 10.3246C13.3078 10.8571 14.2709 10.4581 14.3339 9.6421L15.0069 0.922596Z" fill="#BDEB49"/>
</svg>
