<svg width="16" height="18" viewBox="0 0 16 18" fill="none" xmlns="http://www.w3.org/2000/svg">
<path d="M14.285 7.51502H10.0792C9.75924 7.51502 9.50781 7.26752 9.50781 6.95252C9.50781 6.63752 9.75924 6.39002 10.0792 6.39002H13.7135V2.80127C13.7135 2.48627 13.965 2.23877 14.285 2.23877C14.605 2.23877 14.8564 2.48627 14.8564 2.80127V6.94127C14.8564 7.25627 14.605 7.50377 14.285 7.50377V7.51502Z" fill="#B6B6B6"/>
<path d="M7.99972 15.7612C4.21686 15.7612 1.14258 12.735 1.14258 9.01123C1.14258 5.28748 4.21686 2.26123 7.99972 2.26123C10.674 2.26123 13.1197 3.80248 14.2397 6.19873C14.3769 6.47998 14.2397 6.81748 13.954 6.94123C13.6683 7.07623 13.3254 6.94123 13.1997 6.65998C12.7417 5.68108 12.0087 4.85162 11.0873 4.26954C10.1659 3.68746 9.09455 3.37705 7.99972 3.37498C4.84544 3.37498 2.28544 5.89498 2.28544 8.99998C2.28544 12.105 4.84544 14.625 7.99972 14.625C11.154 14.625 13.714 12.105 13.714 8.99998C13.714 8.68498 13.9654 8.43748 14.2854 8.43748C14.6054 8.43748 14.8569 8.68498 14.8569 8.99998C14.8569 12.7237 11.7826 15.75 7.99972 15.75V15.7612Z" fill="#B6B6B6"/>
</svg>
