<svg width="21" height="21" viewBox="0 0 21 21" fill="none" xmlns="http://www.w3.org/2000/svg">
<rect width="20.6642" height="20.6642" rx="2.95213" fill="#CDFF4E"/>
<path d="M11.2546 5.47479C11.0182 5.27554 10.7189 5.16626 10.4097 5.16626C10.1006 5.16626 9.80134 5.27554 9.56492 5.47479L5.63212 8.7929C5.48615 8.91593 5.36881 9.06935 5.2883 9.24245C5.20779 9.41554 5.16606 9.60414 5.16602 9.79504V15.2165C5.16602 15.7793 5.6228 16.2361 6.18563 16.2361H7.93354C8.20396 16.2361 8.4633 16.1287 8.65452 15.9374C8.84573 15.7462 8.95315 15.4869 8.95315 15.2165V12.8842C8.95315 12.488 9.26894 12.1664 9.66222 12.1559H11.1573C11.3471 12.1609 11.5274 12.2398 11.6599 12.3759C11.7923 12.5119 11.8664 12.6943 11.8663 12.8842V15.2165C11.8663 15.7793 12.3231 16.2361 12.886 16.2361H14.6339C14.9043 16.2361 15.1636 16.1287 15.3548 15.9374C15.5461 15.7462 15.6535 15.4869 15.6535 15.2165V9.79446C15.6534 9.60355 15.6117 9.41496 15.5312 9.24187C15.4507 9.06877 15.3333 8.91535 15.1874 8.79232L11.2546 5.47479Z" fill="#101010"/>
</svg>
